<svg xmlns="http://www.w3.org/2000/svg" width="16" height="16" viewBox="0 0 16 16">
  <g fill="none" fill-rule="evenodd" transform="translate(0 2)">
    <path fill="#E25950" d="M1.99406028,0 C0.892771196,0 0,0.887729645 0,2 L0,4 L16,4 L16,2 C16,0.8954305 15.1054862,0 14.0059397,0 L1.99406028,0 Z"/>
    <rect width="16" height="4" y="4" fill="#F6F9FC"/>
    <path fill="#EAEEF3" fill-rule="nonzero" d="M15,8 L15,4 L16,4 L16,8 L15,8 Z M0,4 L1,4 L1,8 L0,8 L0,4 Z"/>
    <path fill="#333" d="M0,8 L0,10 C0,11.1045695 0.894513756,12 1.99406028,12 L14.0059397,12 C15.1072288,12 16,11.1122704 16,10 L16,8 L0,8 Z"/>
    <path fill="#FCD669" d="M4,4.5 L7,5.5 L4,7.5 L4,4.5 Z M12,4.5 L12,7.5 L9,5.5 L12,4.5 Z M7,6 L9,6 L9,7 L7,7 L7,6 Z"/>
  </g>
</svg>
